<svg width="418" height="217" viewBox="0 0 418 217" fill="none" xmlns="http://www.w3.org/2000/svg">
<path d="M35.5106 169.392C33.7119 167.956 32.4652 166.782 31.0572 165.944C28.8728 164.674 25.8424 166.369 25.7996 168.926C25.7797 170.569 26.1572 172.264 26.6024 173.882C28.1934 179.491 29.9216 184.982 29.0241 191.015C28.6053 193.92 30.6855 195.926 32.957 197.483C34.484 198.533 36.8196 197.934 37.8575 195.871C39.5089 192.535 41.9147 189.888 44.6579 187.516C46.6472 185.804 48.8647 184.335 50.969 182.763C51.9357 182.054 52.942 181.417 53.7936 180.568C54.9177 179.45 55.1262 177.979 54.5477 176.55C53.9275 175.014 52.5649 174.357 51.0722 174.619C49.4721 174.887 47.8519 175.448 46.3825 176.147C44.7024 176.93 43.1471 178.035 41.411 179.113C42.0417 173.459 44.4769 169.351 49.2184 166.106C55.1015 162.069 61.634 160.114 68.7169 159.736C77.9839 159.278 86.7352 161.255 95.0608 165.336C101.766 168.627 107.973 172.675 113.951 177.136C124.562 185.036 136.283 186.198 148.684 182.616C154.653 180.874 158.539 177.054 160.478 171.038C162.261 165.469 163.065 159.697 163.545 153.905C163.661 152.731 163.556 151.423 163.104 150.352C162.813 149.601 161.8 148.779 161.045 148.747C160.288 148.678 159.033 149.365 158.782 150.035C158.066 152.081 157.716 154.253 157.254 156.358C156.415 160.125 155.687 163.959 154.812 167.728C153.646 172.754 150.395 175.701 145.533 176.69C135.314 178.805 125.758 177.892 116.907 171.358C110.744 166.797 104.08 162.92 97.3874 159.19C89.7714 154.962 81.4714 152.705 72.7601 152.148C64.4461 151.644 56.6403 153.265 49.1996 157.02C44.4134 159.428 40.2781 162.605 37.2937 167.18C36.7603 167.939 36.1176 168.667 35.5106 169.392Z" fill="#D0D0D0"/>
<path d="M366.19 207.77C365.664 207.515 365.288 207.161 365.063 206.71C364.824 206.286 364.859 205.755 365.168 205.119C365.477 204.482 365.948 204.077 366.579 203.905C367.224 203.705 367.904 203.607 368.62 203.613C369.335 203.618 369.955 203.611 370.478 203.591C372.775 203.441 374.853 202.79 376.711 201.64C378.598 200.503 380.254 199.066 381.679 197.329C383.132 195.605 384.322 193.788 385.25 191.878C386.083 190.161 386.661 188.406 386.985 186.613C387.349 184.806 387.342 182.989 386.963 181.162C386.846 180.558 386.597 179.838 386.215 179.003C385.875 178.153 385.5 177.304 385.091 176.456C384.682 175.607 384.33 174.888 384.034 174.3C383.822 173.821 383.686 173.395 383.627 173.024C383.609 172.639 383.64 172.364 383.72 172.197C384.097 171.422 384.512 170.991 384.965 170.903C385.432 170.787 386.011 170.898 386.703 171.234C387.229 171.489 387.695 171.869 388.1 172.374C388.518 172.851 388.875 173.383 389.171 173.972C390.903 177.311 391.899 180.651 392.158 183.993C392.43 187.307 391.719 190.708 390.025 194.197C388.896 196.522 387.406 198.639 385.557 200.546C383.707 202.453 381.619 204.04 379.294 205.306C377.009 206.557 374.569 207.391 371.972 207.807C371.12 207.94 370.137 208.062 369.024 208.171C367.937 208.294 366.993 208.16 366.19 207.77Z" fill="#0086FF"/>
<path d="M355.241 200.707C354.382 200.291 353.873 199.718 353.713 198.991C353.554 198.263 353.586 197.492 353.81 196.677C354.076 195.848 354.364 195.115 354.673 194.478L355.439 192.9C356.286 191.156 357.167 189.411 358.083 187.666C359.027 185.935 360.01 184.051 361.032 182.016C360.327 181.707 359.711 181.46 359.186 181.273C358.688 181.1 358.191 180.893 357.692 180.651C356.419 180.032 356.084 179.1 356.689 177.854C356.918 177.383 357.216 176.981 357.584 176.646C357.965 176.284 358.446 176.175 359.025 176.32L363.083 177.264C363.608 177.382 364.053 177.239 364.42 176.835C364.829 176.418 365.187 175.89 365.496 175.254C365.847 174.603 366.204 173.972 366.569 173.362C366.961 172.766 367.424 172.341 367.958 172.087C368.52 171.846 369.216 171.927 370.046 172.331C370.628 172.613 370.976 172.988 371.092 173.454C371.248 173.907 371.275 174.381 371.17 174.878C371.066 175.375 370.913 175.831 370.711 176.246C370.684 176.302 370.576 176.489 370.387 176.807C370.212 177.098 370.022 177.383 369.819 177.661C369.643 177.952 369.536 178.139 369.495 178.222L368.85 179.551L373.916 182.011C374.526 182.307 374.855 182.826 374.905 183.569C374.968 184.284 374.859 184.932 374.577 185.513C374.523 185.624 374.38 185.812 374.149 186.076C373.918 186.34 373.625 186.557 373.269 186.726C372.927 186.868 372.562 186.844 372.174 186.656L366.858 184.075C366.831 184.062 366.762 184.062 366.652 184.077C366.555 184.065 366.418 184.101 366.24 184.185L366.096 184.27C365.595 184.95 365.202 185.512 364.919 185.956C364.648 186.372 364.405 186.767 364.189 187.141C364.014 187.501 363.799 187.944 363.544 188.47C362.804 189.993 362.092 191.529 361.408 193.079C360.752 194.642 360.014 196.268 359.194 197.957C358.925 198.51 358.608 199.058 358.242 199.599C357.877 200.14 357.448 200.53 356.955 200.77C356.449 201.037 355.877 201.017 355.241 200.707Z" fill="#0086FF"/>
<path d="M344.469 194.707C343.833 194.398 343.449 193.955 343.318 193.379C343.229 192.788 343.284 192.147 343.482 191.456C343.708 190.779 343.983 190.108 344.305 189.444C344.467 189.112 344.621 188.793 344.769 188.489C344.958 188.17 345.12 187.872 345.254 187.595C345.577 186.931 346.088 185.913 346.788 184.542C347.488 183.171 348.296 181.614 349.212 179.868C350.141 178.096 351.117 176.261 352.142 174.363C353.166 172.465 354.184 170.65 355.196 168.918C356.236 167.199 357.183 165.708 358.035 164.446C358.834 163.294 359.664 162.465 360.525 161.96C361.414 161.467 362.122 161.349 362.648 161.605C363.119 161.833 363.339 162.402 363.308 163.311C363.277 164.22 362.803 165.512 361.887 167.188C359.815 170.117 357.935 173.002 356.247 175.843C354.559 178.685 352.949 181.683 351.417 184.84C350.771 186.169 350.195 187.531 349.688 188.927C349.181 190.323 348.605 191.686 347.96 193.015C347.543 193.873 347.034 194.464 346.432 194.788C345.843 195.084 345.189 195.057 344.469 194.707Z" fill="#0086FF"/>
<path d="M323.087 183.556C321.896 182.977 321.021 182.244 320.46 181.356C319.94 180.454 319.66 179.48 319.621 178.434C319.581 177.388 319.7 176.334 319.976 175.271C320.294 174.193 320.688 173.17 321.159 172.201L322.147 170.166C322.187 170.083 322.383 169.785 322.735 169.271C323.101 168.73 323.486 168.148 323.892 167.524C324.325 166.913 324.651 166.455 324.867 166.15C325.139 165.802 325.471 165.365 325.864 164.837C326.298 164.295 326.753 163.781 327.229 163.293C327.747 162.792 328.265 162.428 328.786 162.202C329.347 161.961 329.877 161.962 330.376 162.204C331.123 162.567 331.583 163.064 331.756 163.695C331.956 164.34 331.901 164.981 331.592 165.617C331.337 166.143 331.005 166.615 330.597 167.033C330.216 167.464 329.843 167.916 329.477 168.388C328.772 169.346 328.068 170.304 327.363 171.262C326.686 172.233 326.085 173.259 325.561 174.339C325.373 174.726 325.158 175.238 324.918 175.874C324.678 176.51 324.568 177.124 324.588 177.716C324.609 178.307 324.924 178.751 325.533 179.047C326.004 179.275 326.705 179.24 327.638 178.94C328.598 178.653 329.673 178.2 330.864 177.581C332.082 176.975 333.34 176.286 334.639 175.514C335.951 174.714 337.188 173.929 338.349 173.158C339.551 172.373 340.589 171.68 341.463 171.078C342.351 170.448 342.972 170.014 343.327 169.776C343.696 169.579 344.053 169.444 344.396 169.371C344.739 169.298 345.105 169.356 345.492 169.544C346.794 170.176 347.273 171.162 346.931 172.501L346.205 173.996C345.613 175.214 344.98 176.412 344.306 177.59C343.672 178.754 343.08 179.903 342.529 181.038L341.339 183.488C341.207 183.972 341.192 184.461 341.294 184.955C341.396 185.449 341.47 185.93 341.517 186.398C341.605 186.851 341.535 187.313 341.306 187.784C340.997 188.42 340.541 188.866 339.938 189.121C339.335 189.376 338.716 189.348 338.079 189.039C337.248 188.636 336.718 188.036 336.489 187.241C336.273 186.417 336.214 185.551 336.314 184.641C336.39 184.062 336.505 183.331 336.66 182.448C336.856 181.551 337.046 180.668 337.228 179.799C336.464 180.317 335.643 180.808 334.768 181.273C333.933 181.723 333.078 182.146 332.201 182.541C330.778 183.219 329.249 183.725 327.615 184.061C325.98 184.396 324.471 184.228 323.087 183.556Z" fill="#0086FF"/>
<path d="M301.785 174.237C300.512 173.619 299.462 172.75 298.637 171.631C297.812 170.512 297.261 169.286 296.984 167.954C296.721 166.594 296.781 165.238 297.164 163.884L298.193 161.766C298.945 160.216 299.982 158.786 301.302 157.477C302.622 156.168 304.117 155.097 305.787 154.266C307.47 153.407 309.212 152.918 311.014 152.801C312.829 152.656 314.582 152.994 316.27 153.814C316.963 154.15 317.497 154.564 317.875 155.055C318.28 155.559 318.623 156.051 318.904 156.529C319.225 156.994 319.581 157.354 319.969 157.611C320.742 156.584 321.409 155.984 321.972 155.812C322.548 155.613 323.168 155.675 323.832 155.997C324.635 156.387 325.047 156.912 325.069 157.573C325.131 158.219 324.974 158.93 324.598 159.705C323.858 161.228 323.091 162.703 322.295 164.13C321.527 165.57 320.767 167.066 320.014 168.616C319.423 169.834 318.88 171.128 318.387 172.496C317.893 173.865 317.351 175.158 316.759 176.376L316.336 177.248C316.04 177.857 315.64 178.364 315.135 178.769C314.672 179.16 314.038 179.161 313.236 178.771C312.488 178.408 312.056 177.924 311.939 177.32C311.863 176.701 311.924 176.047 312.122 175.356C312.362 174.651 312.568 174.016 312.74 173.449L312.655 173.203C311.256 173.687 309.995 174.135 308.871 174.547C307.775 174.973 306.669 175.206 305.555 175.247C304.454 175.259 303.197 174.923 301.785 174.237ZM303.407 169.841C304.376 170.312 305.431 170.465 306.571 170.3C307.753 170.121 308.919 169.729 310.068 169.124C311.23 168.491 312.261 167.742 313.16 166.879C314.058 166.015 314.729 165.126 315.173 164.212C315.509 163.52 315.748 162.781 315.89 161.995C316.046 161.181 316.01 160.41 315.781 159.683C315.58 158.97 315.064 158.412 314.234 158.008C313.32 157.565 312.266 157.446 311.07 157.653C309.903 157.873 308.731 158.313 307.555 158.974C306.392 159.606 305.341 160.362 304.401 161.24C303.475 162.091 302.804 162.945 302.387 163.803C302.051 164.495 301.812 165.235 301.669 166.021C301.555 166.82 301.619 167.57 301.861 168.269C302.116 168.941 302.632 169.465 303.407 169.841Z" fill="#0086FF"/>
<path d="M283.813 167.049C283.232 166.767 282.834 166.249 282.619 165.494C282.431 164.753 282.492 164.064 282.801 163.427L284.495 159.939C285.288 158.305 286.089 156.727 286.897 155.203C287.746 153.665 288.568 152.08 289.361 150.446C289.401 150.363 289.468 150.156 289.56 149.824C289.68 149.506 289.814 149.161 289.961 148.787L289.712 148.666C289.435 148.532 289.11 148.426 288.738 148.347C288.406 148.255 288.088 148.135 287.784 147.987C287.092 147.651 286.632 147.188 286.405 146.599C286.191 145.982 286.259 145.313 286.609 144.593C286.932 143.929 287.312 143.532 287.751 143.403C288.218 143.288 288.707 143.303 289.218 143.448C289.757 143.607 290.289 143.78 290.814 143.967C291.38 144.139 291.904 144.188 292.385 144.113C292.866 144.039 293.295 143.718 293.674 143.149C294.624 141.968 295.554 140.863 296.465 139.833C297.403 138.818 298.384 137.994 299.409 137.363C300.434 136.731 301.573 136.395 302.825 136.353C304.077 136.311 305.506 136.68 307.112 137.459C307.472 137.634 307.929 137.925 308.485 138.331C309.081 138.723 309.644 139.185 310.173 139.716C310.73 140.26 311.136 140.833 311.391 141.436C311.687 142.024 311.694 142.609 311.411 143.191C311.102 143.828 310.612 144.274 309.94 144.529C309.31 144.771 308.731 144.764 308.205 144.508C307.513 144.172 306.93 143.718 306.455 143.145C305.981 142.572 305.397 142.118 304.705 141.782C303.736 141.311 302.827 141.281 301.978 141.69C301.171 142.084 300.428 142.733 299.75 143.636C299.086 144.511 298.498 145.44 297.986 146.423L302.056 148.399C302.527 148.628 302.821 149.079 302.939 149.752C303.098 150.411 303.063 150.975 302.835 151.446C302.566 152 302.212 152.341 301.773 152.47C301.334 152.599 300.866 152.611 300.369 152.507C299.886 152.375 299.417 152.25 298.961 152.131C298.712 152.01 298.318 151.87 297.779 151.711C297.254 151.525 296.715 151.331 296.162 151.131C295.637 150.945 295.215 150.791 294.897 150.671C294.677 150.701 294.351 151.021 293.917 151.632C293.525 152.229 293.086 152.956 292.6 153.815C292.143 154.688 291.698 155.567 291.268 156.453C290.919 157.173 290.596 157.837 290.3 158.447C290.032 159.069 289.844 159.491 289.737 159.713C289.334 160.543 288.965 161.373 288.63 162.203C288.323 163.046 287.995 163.828 287.646 164.548C287.404 165.046 287.107 165.552 286.755 166.065C286.444 166.565 286.042 166.934 285.549 167.174C285.084 167.427 284.506 167.385 283.813 167.049Z" fill="#0086FF"/>
<path d="M253.662 150.869C253.164 150.627 252.871 150.279 252.783 149.826C252.695 149.373 252.717 148.904 252.849 148.421C252.995 147.91 253.114 147.454 253.205 147.054L254.698 143.981C255.45 142.43 256.279 140.9 257.184 139.389C258.102 137.85 258.931 136.32 259.67 134.797C260.02 134.077 260.287 133.351 260.471 132.62C260.655 131.888 260.915 131.176 261.252 130.484L261.796 129.363C262.219 129.055 262.658 128.891 263.112 128.872C263.594 128.867 264.042 128.965 264.457 129.167C265.066 129.462 265.436 129.864 265.566 130.372C265.709 130.852 265.722 131.354 265.604 131.879C265.514 132.417 265.43 132.906 265.352 133.348C265.288 133.761 265.367 134.056 265.59 134.233C266.648 134.097 267.658 133.954 268.62 133.805C269.61 133.67 270.58 133.645 271.53 133.73C272.522 133.801 273.517 134.079 274.513 134.563C275.012 134.805 275.484 135.171 275.93 135.661C276.404 136.165 276.748 136.726 276.961 137.343C277.189 137.932 277.161 138.517 276.879 139.099C276.529 139.818 275.983 140.203 275.24 140.253C274.525 140.317 273.918 140.227 273.42 139.985C273.088 139.824 272.803 139.6 272.566 139.314C272.328 139.027 272.044 138.804 271.711 138.642C270.742 138.172 269.708 137.977 268.607 138.059C267.548 138.126 266.539 138.337 265.58 138.693C264.62 139.048 263.805 139.422 263.135 139.815C262.904 140.011 262.619 140.386 262.281 140.94C261.944 141.495 261.579 142.139 261.189 142.873C260.812 143.58 260.441 144.272 260.077 144.951C259.741 145.643 259.438 146.232 259.169 146.716C258.697 147.617 258.17 148.456 257.587 149.233C257.045 149.997 256.446 150.561 255.79 150.927C255.147 151.264 254.438 151.245 253.662 150.869Z" fill="#0086FF"/>
<path d="M234.083 140.335C232.892 139.757 232.017 139.024 231.456 138.135C230.936 137.233 230.656 136.259 230.617 135.213C230.577 134.167 230.696 133.113 230.972 132.05C231.29 130.973 231.684 129.949 232.155 128.98L233.143 126.945C233.183 126.862 233.38 126.564 233.731 126.051C234.097 125.51 234.482 124.927 234.888 124.303C235.322 123.692 235.647 123.234 235.863 122.929C236.135 122.582 236.467 122.144 236.86 121.616C237.294 121.075 237.749 120.56 238.225 120.073C238.743 119.571 239.261 119.207 239.782 118.981C240.343 118.74 240.873 118.741 241.372 118.983C242.119 119.346 242.579 119.843 242.752 120.474C242.952 121.119 242.898 121.76 242.588 122.397C242.333 122.923 242.001 123.394 241.593 123.812C241.213 124.243 240.839 124.695 240.473 125.167C239.768 126.125 239.064 127.083 238.359 128.041C237.682 129.013 237.081 130.038 236.557 131.118C236.369 131.506 236.155 132.017 235.914 132.653C235.674 133.289 235.564 133.903 235.584 134.495C235.605 135.086 235.92 135.53 236.529 135.826C237 136.054 237.701 136.019 238.634 135.719C239.594 135.432 240.669 134.98 241.86 134.36C243.078 133.754 244.336 133.065 245.635 132.293C246.947 131.493 248.184 130.708 249.345 129.937C250.547 129.152 251.585 128.459 252.459 127.857C253.347 127.227 253.968 126.793 254.323 126.555C254.693 126.358 255.049 126.223 255.392 126.151C255.735 126.078 256.101 126.135 256.488 126.324C257.79 126.955 258.269 127.941 257.927 129.28L257.201 130.775C256.609 131.993 255.976 133.191 255.302 134.369C254.668 135.533 254.076 136.682 253.525 137.817L252.335 140.268C252.203 140.751 252.188 141.24 252.29 141.734C252.392 142.229 252.466 142.71 252.513 143.177C252.601 143.63 252.531 144.092 252.302 144.563C251.993 145.2 251.537 145.645 250.934 145.9C250.331 146.155 249.712 146.128 249.075 145.818C248.244 145.415 247.714 144.816 247.485 144.02C247.269 143.197 247.211 142.33 247.31 141.42C247.386 140.841 247.501 140.11 247.656 139.228C247.852 138.331 248.042 137.447 248.224 136.578C247.46 137.096 246.639 137.588 245.764 138.052C244.929 138.502 244.074 138.925 243.198 139.321C241.774 139.998 240.245 140.504 238.611 140.84C236.977 141.175 235.467 141.007 234.083 140.335Z" fill="#0086FF"/>
<path d="M213.629 130.916C211.636 129.948 209.989 128.618 208.689 126.926C207.389 125.234 206.597 123.344 206.311 121.255C206.025 119.166 206.393 117.069 207.415 114.965C208.114 113.526 209.05 112.338 210.223 111.402C211.437 110.452 212.763 109.659 214.201 109.023C215.667 108.4 217.099 107.847 218.497 107.362C219.237 107.106 220.007 107.035 220.807 107.15C221.62 107.237 222.387 107.455 223.107 107.804C224.906 108.678 226.543 109.712 228.015 110.907C229.488 112.101 230.66 113.457 231.531 114.975C232.444 116.478 232.938 118.138 233.014 119.954C233.103 121.743 232.651 123.661 231.656 125.71C230.836 127.399 229.73 128.761 228.338 129.796C226.946 130.83 225.399 131.55 223.696 131.955C222.022 132.374 220.303 132.497 218.539 132.325C216.816 132.138 215.179 131.669 213.629 130.916ZM215.037 125.903C216.56 126.642 218.127 127.078 219.739 127.211C221.365 127.316 222.869 127.037 224.251 126.374C225.675 125.697 226.777 124.555 227.556 122.95C228.242 121.538 228.398 120.159 228.025 118.815C227.679 117.483 226.991 116.294 225.96 115.246C224.942 114.17 223.783 113.316 222.482 112.685C221.817 112.362 221.23 112.197 220.721 112.189C220.212 112.181 219.71 112.262 219.217 112.433C218.723 112.604 218.147 112.804 217.489 113.032C216.324 113.458 215.202 114.008 214.122 114.681C213.056 115.327 212.227 116.259 211.635 117.477C210.694 119.415 210.597 121.095 211.343 122.518C212.089 123.941 213.32 125.069 215.037 125.903Z" fill="#0086FF"/>
<path d="M182.394 129.195C181.896 128.953 181.643 128.523 181.636 127.903C181.615 127.312 181.719 126.781 181.948 126.31C182.378 125.424 182.982 124.674 183.759 124.059C184.523 123.472 185.252 122.851 185.947 122.196C186.26 121.903 186.655 121.513 187.131 121.026C187.621 120.58 188.104 120.113 188.581 119.626C189.084 119.152 189.506 118.741 189.846 118.393C190.186 118.045 190.37 117.843 190.397 117.788L190.457 117.663C188.988 116.813 187.91 115.793 187.221 114.603C186.533 113.414 186.14 112.145 186.042 110.797C185.943 109.449 186.045 108.079 186.345 106.685C186.659 105.263 187.076 103.875 187.598 102.52C188.146 101.179 188.696 99.9402 189.248 98.8051C189.422 98.4451 189.665 97.9812 189.975 97.4132C190.298 96.8176 190.663 96.2421 191.07 95.6868C191.504 95.1449 191.96 94.7335 192.439 94.4527C192.945 94.1853 193.461 94.1793 193.987 94.4347C195.012 94.9322 195.495 95.6286 195.436 96.524C195.405 97.4328 195.175 98.3303 194.745 99.2162C194.449 99.8253 194.132 100.373 193.793 100.858C193.482 101.358 193.172 101.926 192.863 102.562L192.662 102.978C192.567 103.171 192.407 103.607 192.181 104.284C191.955 104.961 191.722 105.652 191.483 106.357C191.271 107.075 191.112 107.614 191.006 107.973C190.7 108.954 190.587 109.891 190.667 110.785C190.759 111.651 191.179 112.266 191.927 112.629C192.813 113.059 193.756 113.089 194.757 112.72C195.785 112.364 196.831 111.76 197.895 110.908C198.986 110.069 200.077 109.162 201.167 108.185C202.27 107.182 203.34 106.247 204.376 105.381C205.412 104.516 206.389 103.878 207.306 103.468C208.252 103.072 209.098 103.055 209.846 103.418C211.091 104.023 211.378 105.018 210.706 106.402C210.249 107.344 209.66 108.17 208.938 108.88C208.245 109.604 207.482 110.26 206.649 110.847C205.844 111.449 205.017 112.023 204.17 112.569C203.323 113.116 202.525 113.703 201.775 114.331C199.525 116.147 197.324 118.072 195.173 120.107C193.063 122.127 190.973 124.175 188.905 126.25C188.374 126.779 187.755 127.351 187.046 127.965C186.337 128.578 185.586 129.035 184.791 129.333C184.023 129.645 183.225 129.599 182.394 129.195Z" fill="#0086FF"/>
<path d="M157.676 104.774C156.818 104.357 156.309 103.785 156.149 103.057C155.989 102.329 156.021 101.558 156.246 100.743C156.512 99.9144 156.799 99.1815 157.108 98.5447L157.875 96.9666C158.722 95.2223 159.603 93.4777 160.519 91.7327C161.462 90.0011 162.445 88.1176 163.468 86.0823C162.762 85.7739 162.147 85.5263 161.622 85.3397C161.124 85.1665 160.626 84.959 160.128 84.717C158.854 84.0985 158.52 83.1664 159.125 81.9205C159.353 81.4498 159.652 81.0472 160.019 80.7126C160.401 80.3502 160.881 80.2414 161.461 80.3861L165.519 81.3302C166.043 81.448 166.489 81.3051 166.856 80.9017C167.264 80.484 167.623 79.9568 167.932 79.32C168.282 78.669 168.64 78.0385 169.004 77.4286C169.397 76.8322 169.86 76.407 170.394 76.153C170.955 75.9125 171.651 75.9939 172.482 76.3972C173.063 76.6795 173.412 77.054 173.527 77.5207C173.684 77.9731 173.71 78.4477 173.606 78.9445C173.501 79.4412 173.348 79.8973 173.147 80.3125C173.12 80.3679 173.012 80.555 172.823 80.8738C172.647 81.1649 172.458 81.4493 172.255 81.7269C172.079 82.018 171.971 82.2051 171.931 82.2882L171.285 83.6171L176.352 86.0774C176.961 86.3732 177.291 86.8924 177.341 87.6352C177.404 88.3502 177.294 88.9984 177.012 89.5799C176.958 89.6906 176.816 89.8781 176.585 90.1423C176.354 90.4065 176.061 90.6233 175.705 90.7926C175.362 90.9342 174.997 90.9109 174.61 90.7227L169.294 88.1414C169.266 88.128 169.197 88.1288 169.087 88.1438C168.991 88.1312 168.854 88.1672 168.676 88.2518L168.532 88.3361C168.031 89.0164 167.638 89.5784 167.354 90.0222C167.084 90.4383 166.84 90.8334 166.624 91.2076C166.45 91.5675 166.235 92.0105 165.979 92.5365C165.24 94.0593 164.528 95.5955 163.844 97.1451C163.188 98.7082 162.449 100.334 161.629 102.023C161.36 102.577 161.043 103.124 160.678 103.665C160.312 104.206 159.883 104.597 159.391 104.836C158.884 105.104 158.313 105.083 157.676 104.774Z" fill="#0086FF"/>
<path d="M137.041 93.726C135.048 92.758 133.401 91.4281 132.101 89.7363C130.801 88.0445 130.009 86.1541 129.723 84.0651C129.437 81.9761 129.805 79.8796 130.827 77.7754C131.526 76.3357 132.462 75.1479 133.635 74.2121C134.849 73.262 136.175 72.4688 137.613 71.8327C139.079 71.2101 140.511 70.6566 141.909 70.1724C142.65 69.916 143.42 69.8452 144.219 69.9598C145.032 70.0467 145.799 70.2649 146.519 70.6145C148.318 71.4883 149.955 72.5224 151.428 73.7167C152.901 74.9109 154.073 76.2669 154.944 77.7848C155.856 79.2884 156.35 80.9482 156.426 82.7643C156.516 84.5528 156.063 86.4714 155.068 88.5202C154.248 90.209 153.142 91.5708 151.75 92.6056C150.358 93.6404 148.811 94.3603 147.109 94.7655C145.434 95.1841 143.715 95.3073 141.951 95.135C140.228 94.9485 138.591 94.4788 137.041 93.726ZM138.449 88.7129C139.972 89.4523 141.539 89.8884 143.151 90.0211C144.777 90.1261 146.281 89.8472 147.663 89.1842C149.087 88.5069 150.189 87.3654 150.968 85.7596C151.654 84.3476 151.81 82.9693 151.437 81.6246C151.091 80.2934 150.403 79.1038 149.372 78.0559C148.355 76.9802 147.195 76.1265 145.894 75.4946C145.23 75.1719 144.643 75.0067 144.133 74.9988C143.624 74.991 143.122 75.0725 142.629 75.2434C142.135 75.4143 141.559 75.6137 140.901 75.8416C139.736 76.268 138.614 76.8179 137.534 77.4911C136.468 78.1367 135.639 79.0686 135.048 80.2868C134.106 82.2248 134.009 83.9053 134.755 85.3282C135.501 86.7511 136.732 87.8794 138.449 88.7129Z" fill="#0086FF"/>
<path d="M104.443 76.87C103.751 76.5339 103.333 76.0914 103.189 75.5425C103.059 74.9659 103.093 74.3667 103.292 73.7449C103.505 73.0955 103.746 72.4939 104.015 71.9402C104.633 70.6666 105.279 69.4065 105.953 68.1598C106.654 66.9266 107.287 65.7286 107.852 64.5658C108.457 63.3199 108.897 62.0621 109.171 60.7926C109.445 59.523 109.858 58.3206 110.409 57.1855L111.196 55.5659C111.727 55.1054 112.179 54.8456 112.55 54.7862C112.934 54.6991 113.362 54.7699 113.832 54.9984C114.69 55.4152 115.179 55.9946 115.298 56.7365C115.43 57.4508 115.37 58.2085 115.118 59.0098C114.906 59.7969 114.681 60.5084 114.44 61.1444C114.32 61.4624 114.086 62.0845 113.739 63.0108C113.42 63.9506 113.086 64.8148 112.737 65.6034L112.903 65.6841L113.15 65.5986C114.052 65.0789 115.009 64.5172 116.021 63.9135C117.033 63.3099 118.073 62.7885 119.141 62.3494C120.238 61.9237 121.329 61.684 122.416 61.6301C123.516 61.5485 124.606 61.7698 125.686 62.2942C127.07 62.9664 128.052 63.9392 128.631 65.2126C129.224 66.4584 129.543 67.8794 129.589 69.4756C129.649 71.0441 129.53 72.6629 129.233 74.3319C128.935 76.001 128.575 77.5882 128.152 79.0935C127.729 80.5988 127.372 81.8968 127.082 82.9876L126.578 84.0259C126.282 84.635 125.821 85.1634 125.193 85.6112C124.578 86.0313 123.911 86.0665 123.191 85.717C122.443 85.354 121.984 84.8913 121.812 84.3289C121.668 83.78 121.689 83.1741 121.874 82.5112C121.939 82.2351 122.065 81.8001 122.251 81.206C122.45 80.5843 122.656 79.9143 122.867 79.196C123.093 78.4501 123.305 77.7663 123.504 77.1445C123.717 76.4951 123.863 76.0185 123.942 75.7148C124.128 75.1207 124.25 74.376 124.309 73.4806C124.408 72.5709 124.468 71.7787 124.487 71.104C124.521 70.4016 124.498 69.6379 124.42 68.8129C124.341 67.9879 123.928 67.3939 123.181 67.0309C122.516 66.7082 121.793 66.6478 121.011 66.8496C120.256 67.0648 119.516 67.39 118.792 67.8251C118.095 68.2737 117.473 68.6732 116.927 69.0237C115.697 69.795 114.536 70.6 113.445 71.4385C112.353 72.2771 111.173 73.1924 109.905 74.1844C109.4 74.5895 108.869 75.0843 108.311 75.6689C107.767 76.2258 107.18 76.6594 106.551 76.9695C105.921 77.2796 105.219 77.2465 104.443 76.87Z" fill="#0086FF"/>
<path d="M77.603 65.6336C76.8278 65.2571 75.9755 64.7577 75.046 64.1353C74.1031 63.5406 73.2416 62.8485 72.4616 62.0592C71.6816 61.2699 71.1345 60.3884 70.8204 59.4147C70.534 58.4544 70.6529 57.4344 71.1772 56.3547C71.5268 55.6348 72.0092 55.0993 72.6246 54.748C73.2534 54.3691 73.9692 54.3745 74.7721 54.7644C75.2705 55.0064 75.5976 55.3192 75.7535 55.7028C75.9093 56.0864 75.9968 56.5053 76.0158 56.9593C76.0625 57.4268 76.1302 57.9215 76.2188 58.4436C76.3486 58.9514 76.6022 59.4509 76.9795 59.942C77.3846 60.4466 78.0301 60.9141 78.916 61.3443C79.5528 61.6535 80.2786 61.9204 81.0933 62.1449C81.9492 62.3552 82.7549 62.3872 83.5102 62.2408C84.2656 62.0944 84.8181 61.6612 85.1676 60.9414C85.4768 60.3046 85.4558 59.6785 85.1046 59.0632C84.7667 58.4201 84.2497 57.7585 83.5536 57.0783C82.8575 56.3982 82.1198 55.6978 81.3406 54.9773C80.5748 54.2291 79.8842 53.4318 79.2687 52.5855C78.6532 51.7392 78.2572 50.8284 78.0807 49.8532C77.9177 48.8502 78.1185 47.7673 78.6831 46.6045C79.2075 45.5247 79.9209 44.7249 80.8233 44.2052C81.7258 43.6854 82.7133 43.378 83.7859 43.283C84.8996 43.1737 85.9948 43.2436 87.0713 43.4926C88.189 43.7274 89.2047 44.0667 90.1184 44.5103C90.6444 44.7658 91.2199 45.1307 91.8448 45.6053C92.4832 46.0521 93.0674 46.5753 93.5974 47.1748C94.1275 47.7744 94.493 48.4308 94.694 49.1443C94.9084 49.8301 94.8408 50.5329 94.4913 51.2527C93.8729 52.5263 92.9269 52.8539 91.6533 52.2354L91.1134 51.9733C90.5114 51.0993 89.9801 50.3965 89.5197 49.865C89.0593 49.3335 88.4553 48.8863 87.7078 48.5233C87.3756 48.362 86.8848 48.1749 86.2353 47.9622C85.627 47.7353 85.027 47.6321 84.4354 47.6527C83.8437 47.6734 83.4134 47.9606 83.1446 48.5143C82.916 48.9849 82.9908 49.5003 83.369 50.0603C83.7471 50.6202 84.2843 51.2403 84.9804 51.9205C85.6766 52.6007 86.4008 53.3287 87.1531 54.1046C87.9054 54.8805 88.5692 55.7331 89.1443 56.6625C89.7329 57.5642 90.102 58.5303 90.2516 59.561C90.4012 60.5916 90.1937 61.6884 89.629 62.8512C88.809 64.5401 87.7211 65.6883 86.3654 66.2959C85.0373 66.917 83.5946 67.1402 82.0371 66.9656C80.5207 66.7767 79.0427 66.3327 77.603 65.6336Z" fill="#0086FF"/>
<path d="M74.2014 35.8058C73.8415 35.631 73.5903 35.338 73.4479 34.9267C73.3466 34.5011 73.3833 34.1084 73.5581 33.7485C73.6522 33.5547 73.7811 33.3949 73.9448 33.2691C74.054 33.1852 74.1631 33.1014 74.2723 33.0175C74.3814 32.9337 74.504 32.8221 74.6401 32.6829C75.1874 32.4012 75.7276 32.099 76.2607 31.7762C76.8073 31.4258 77.3052 31.0346 77.7544 30.6026C78.081 30.2823 78.435 29.9409 78.8162 29.5786C79.1974 29.2163 79.6004 28.9501 80.0252 28.78C80.4633 28.5822 80.9039 28.5908 81.3469 28.8059C81.8176 29.0345 82.1111 29.4165 82.2274 29.952C82.3572 30.4598 82.2876 30.9906 82.0188 31.5443C81.7364 32.1257 81.2615 32.7162 80.594 33.3159C79.9264 33.9155 79.1893 34.4471 78.3825 34.9107C77.5892 35.3467 76.8014 35.6655 76.0191 35.8673C75.278 36.0548 74.6721 36.0343 74.2014 35.8058Z" fill="#0086FF"/>
<path d="M52.9711 53.929C52.1128 53.5122 51.6037 52.94 51.4439 52.2123C51.284 51.4846 51.3164 50.7134 51.5409 49.8986C51.8066 49.0696 52.0941 48.3367 52.4033 47.7L53.1696 46.1218C54.0166 44.3776 54.898 42.633 55.8138 40.8879C56.7572 39.1564 57.7403 37.2729 58.7628 35.2376C58.0572 34.9291 57.4418 34.6816 56.9165 34.495C56.419 34.3218 55.921 34.1142 55.4227 33.8722C54.1491 33.2538 53.8148 32.3217 54.4198 31.0758C54.6484 30.6051 54.9465 30.2025 55.3143 29.8678C55.6955 29.5055 56.176 29.3967 56.7559 29.5414L60.8138 30.4854C61.3382 30.6032 61.7839 30.4604 62.1509 30.057C62.559 29.6393 62.9177 29.112 63.2269 28.4753C63.5772 27.8242 63.9347 27.1938 64.2993 26.5839C64.6915 25.9874 65.1546 25.5622 65.6885 25.3083C66.2501 25.0677 66.9462 25.1491 67.7768 25.5525C68.3582 25.8348 68.7067 26.2093 68.8222 26.676C68.9789 27.1284 69.005 27.603 68.9007 28.0997C68.7963 28.5965 68.6433 29.0525 68.4416 29.4678C68.4147 29.5232 68.3068 29.7103 68.1178 30.0291C67.9422 30.3202 67.7528 30.6046 67.5495 30.8822C67.374 31.1733 67.266 31.3604 67.2257 31.4435L66.5804 32.7724L71.6469 35.2327C72.256 35.5284 72.5855 36.0477 72.6354 36.7904C72.6988 37.5055 72.5893 38.1537 72.307 38.7351C72.2532 38.8459 72.1109 39.0333 71.8799 39.2976C71.649 39.5618 71.3555 39.7785 70.9996 39.9479C70.6571 40.0895 70.2921 40.0662 69.9045 39.878L64.5887 37.2967C64.561 37.2833 64.4922 37.2841 64.3822 37.2991C64.2857 37.2865 64.1485 37.3225 63.9705 37.4071L63.827 37.4914C63.3256 38.1717 62.9329 38.7337 62.649 39.1775C62.3785 39.5936 62.1353 39.9887 61.9194 40.3629C61.7446 40.7228 61.5295 41.1658 61.2741 41.6918C60.5347 43.2146 59.8229 44.7507 59.1389 46.3004C58.4825 47.8635 57.7443 49.4894 56.9242 51.1783C56.6553 51.732 56.3382 52.2794 55.9728 52.8205C55.6074 53.3616 55.1783 53.752 54.6856 53.9917C54.1794 54.2591 53.6079 54.2382 52.9711 53.929Z" fill="#0086FF"/>
<path d="M55.5155 22.5242C54.6849 22.1209 54.0928 21.5083 53.7391 20.6865C53.3855 19.8647 53.4574 18.9416 53.9548 17.9172C54.4522 16.8928 55.1617 16.3478 56.0832 16.282C57.0047 16.2163 57.8392 16.3649 58.5867 16.7279C59.445 17.1447 60.0371 17.7572 60.3631 18.5656C60.7168 19.3874 60.6382 20.3243 60.1273 21.3764C59.6433 22.3731 58.9406 22.9043 58.0191 22.9701C57.1252 23.0493 56.2907 22.9007 55.5155 22.5242ZM41.7345 46.6767C41.2085 46.4213 40.9415 45.9495 40.9335 45.2613C40.9255 44.5732 40.9867 43.9186 41.1172 43.2977L43.7186 37.9404C43.7858 37.8019 43.9883 37.4555 44.326 36.9009C44.7048 36.3322 45.1307 35.6665 45.6036 34.9039C46.1177 34.1271 46.5978 33.3851 47.0438 32.6779C47.531 31.9565 47.9098 31.3877 48.1803 30.9716C48.5322 30.4582 48.9249 29.8962 49.3583 29.2855C49.8194 28.6883 50.337 28.2211 50.9113 27.8841C51.4855 27.5471 52.0772 27.5264 52.6863 27.8222C53.3507 28.1449 53.7407 28.5395 53.8563 29.0062C54.0129 29.4586 54.0047 29.9336 53.8315 30.4312C53.6583 30.9287 53.4507 31.4267 53.2087 31.9251L52.5029 33.3786C52.476 33.434 52.4017 33.5518 52.2799 33.7322C52.1716 33.8849 52.0359 34.0585 51.873 34.2531C51.2086 35.128 50.7068 35.7739 50.3675 36.1908C50.0694 36.5934 49.8119 36.9474 49.5952 37.2528C49.4197 37.5439 49.1974 37.9663 48.9286 38.52C48.7672 38.8523 48.5656 39.2676 48.3236 39.7659C48.1093 40.2777 47.8072 40.9351 47.4173 41.738C47.2425 42.0979 47.0816 42.4645 46.9345 42.8379C46.8009 43.1836 46.6399 43.5502 46.4517 43.9378C46.2501 44.3531 45.9934 44.7759 45.6818 45.2063C45.235 45.8446 44.6766 46.3604 44.0066 46.7536C43.3502 47.1191 42.5928 47.0935 41.7345 46.6767Z" fill="#0086FF"/>
<path d="M32.1622 44.5949C31.2763 44.1647 30.6086 43.5667 30.1593 42.8011C29.7376 42.0489 29.3017 41.2556 28.8515 40.4211C27.289 37.4385 26.4407 34.3236 26.3067 31.0766C26.1861 27.8019 26.8585 24.6556 28.3239 21.6378C29.4936 19.2291 31.031 17.0846 32.9364 15.2042C34.8694 13.3372 37.0543 11.8321 39.4913 10.6889C41.9282 9.54564 44.4668 8.86235 47.1072 8.63902C48.001 8.55983 48.7991 8.53681 49.5015 8.56996C50.245 8.58886 50.9629 8.76637 51.655 9.10247C52.2918 9.41168 52.7712 9.79843 53.0932 10.2627C53.4152 10.727 53.4216 11.2775 53.1123 11.9143C52.8435 12.468 52.4555 12.8442 51.9485 13.0428C51.4415 13.2414 50.8922 13.351 50.3005 13.3716C49.7919 13.4326 49.2691 13.4524 48.732 13.4311C48.236 13.3956 47.727 13.4221 47.205 13.5108C45.1571 13.7823 43.182 14.3971 41.2798 15.3552C39.3776 16.3133 37.6711 17.5375 36.1605 19.0279C34.6633 20.4906 33.471 22.1356 32.5837 23.9629C31.3872 26.427 30.8772 28.7454 31.0538 30.9183C31.2304 33.0911 31.8069 35.3213 32.7832 37.6087C33.0238 38.1703 33.3679 38.7651 33.8157 39.3931C34.2911 40.0346 34.6566 40.6911 34.9122 41.3626C35.1678 42.0341 35.1208 42.7298 34.7712 43.4496C34.4754 44.0587 34.2046 44.4404 33.9586 44.5947C33.7268 44.7901 33.4188 44.9313 33.0344 45.0184L32.1622 44.5949Z" fill="#0086FF"/>
</svg>
